<svg width="1440" height="664" viewBox="0 0 1440 664" fill="none" xmlns="http://www.w3.org/2000/svg">
<path opacity="0.5" d="M-75 150.296C626.5 -131.204 931.523 299.151 1687.5 109.796" stroke="url(#paint0_linear_12_477)" stroke-opacity="0.85"/>
<path opacity="0.5" d="M-75.0407 220.592C626.459 -60.9083 931.482 369.447 1687.46 180.092" stroke="url(#paint1_linear_12_477)" stroke-opacity="0.85"/>
<path opacity="0.5" d="M-73.0408 189.592C740 -103.704 770 351.296 1702.5 132.296" stroke="url(#paint2_linear_12_477)" stroke-opacity="0.85"/>
<path opacity="0.5" d="M-31 554.296C670.5 272.796 975.523 703.151 1731.5 513.796" stroke="url(#paint3_linear_12_477)" stroke-opacity="0.85"/>
<path opacity="0.5" d="M-31.0407 624.592C670.459 343.092 975.482 773.447 1731.46 584.092" stroke="url(#paint4_linear_12_477)" stroke-opacity="0.85"/>
<path opacity="0.5" d="M-29.0408 593.592C784 300.296 814 755.296 1746.5 536.296" stroke="url(#paint5_linear_12_477)" stroke-opacity="0.85"/>
<path d="M936.261 6.67385C936.633 7.08191 937.266 7.11103 937.674 6.73887C938.082 6.36671 938.111 5.73422 937.739 5.32615L936.261 6.67385ZM931.968 1.96669L936.261 6.67385L937.739 5.32615L933.446 0.618999L931.968 1.96669Z" fill="#0C061F"/>
<defs>
<linearGradient id="paint0_linear_12_477" x1="-3.82767" y1="73.6748" x2="1435.82" y2="41.6301" gradientUnits="userSpaceOnUse">
<stop stop-color="#FFADAC"/>
<stop offset="0.608333" stop-color="#5B449F"/>
<stop offset="1" stop-color="#5A6AFF"/>
</linearGradient>
<linearGradient id="paint1_linear_12_477" x1="-3.86838" y1="143.971" x2="1435.78" y2="111.926" gradientUnits="userSpaceOnUse">
<stop stop-color="#FFADAC"/>
<stop offset="0.608333" stop-color="#5B449F"/>
<stop offset="1" stop-color="#5A6AFF"/>
</linearGradient>
<linearGradient id="paint2_linear_12_477" x1="-1.84197" y1="114.157" x2="1437.8" y2="82.112" gradientUnits="userSpaceOnUse">
<stop stop-color="#FFADAC"/>
<stop offset="0.608333" stop-color="#5B449F"/>
<stop offset="1" stop-color="#5A6AFF"/>
</linearGradient>
<linearGradient id="paint3_linear_12_477" x1="40.1723" y1="477.675" x2="1479.82" y2="445.63" gradientUnits="userSpaceOnUse">
<stop stop-color="#FFADAC"/>
<stop offset="0.608333" stop-color="#5B449F"/>
<stop offset="1" stop-color="#5A6AFF"/>
</linearGradient>
<linearGradient id="paint4_linear_12_477" x1="40.1316" y1="547.971" x2="1479.78" y2="515.926" gradientUnits="userSpaceOnUse">
<stop stop-color="#FFADAC"/>
<stop offset="0.608333" stop-color="#5B449F"/>
<stop offset="1" stop-color="#5A6AFF"/>
</linearGradient>
<linearGradient id="paint5_linear_12_477" x1="42.158" y1="518.157" x2="1481.8" y2="486.112" gradientUnits="userSpaceOnUse">
<stop stop-color="#FFADAC"/>
<stop offset="0.608333" stop-color="#5B449F"/>
<stop offset="1" stop-color="#5A6AFF"/>
</linearGradient>
</defs>
</svg>
